<?xml version="1.0" standalone="no"?>
<!DOCTYPE svg PUBLIC "-//W3C//DTD SVG 20010904//EN"
 "http://www.w3.org/TR/2001/REC-SVG-20010904/DTD/svg10.dtd">
<svg version="1.0" xmlns="http://www.w3.org/2000/svg"
 width="128.000000pt" height="128.000000pt" viewBox="0 0 128.000000 128.000000"
 preserveAspectRatio="xMidYMid meet">
<metadata>
Created by potrace 1.14, written by Peter Selinger 2001-2017
</metadata>
<g transform="translate(0.000000,128.000000) scale(0.100000,-0.100000)"
fill="#000000" stroke="none">
<path d="M550 913 c0 -3 7 -14 15 -23 13 -14 47 -139 40 -148 -1 -1 -17 -4
-36 -7 -59 -10 -73 -13 -102 -24 -15 -6 -31 -10 -35 -9 -4 1 -14 -1 -22 -5 -8
-3 -28 -10 -45 -15 -16 -5 -28 -13 -25 -18 8 -14 91 -7 120 11 18 11 32 -38
29 -108 -3 -74 -11 -97 -35 -97 -10 0 -13 14 -13 50 2 53 -12 80 -42 80 -24 0
-32 -15 -15 -29 9 -8 13 -31 12 -69 -1 -48 -4 -57 -21 -60 -46 -7 -49 -12 -27
-32 31 -29 54 -25 131 24 38 25 88 55 112 67 51 26 38 37 -16 15 -47 -20 -45
-20 -45 7 0 32 13 47 46 53 34 6 49 18 40 33 -6 10 -26 9 -57 -4 -13 -5 -17 3
-22 42 -3 26 -4 49 -4 49 1 1 21 5 44 9 l42 7 11 -44 c33 -130 120 -262 215
-324 57 -37 62 -33 62 66 0 50 -4 90 -8 90 -7 0 -20 -25 -25 -49 -1 -8 -9 -21
-18 -29 -13 -13 -20 -10 -60 29 -24 25 -58 71 -75 103 -38 71 -64 165 -48 167
7 1 35 3 62 5 74 5 95 12 89 29 -3 8 -21 19 -40 25 -27 9 -38 9 -56 -4 -12 -9
-35 -16 -50 -16 -30 0 -29 -3 -32 90 -2 37 -6 47 -26 57 -27 14 -70 17 -70 6z"/>
<path d="M708 881 c-16 -6 -16 -9 5 -33 13 -15 35 -30 50 -33 22 -6 27 -4 27
12 0 34 -49 66 -82 54z"/>
<path d="M458 808 c-49 -26 -48 -36 5 -33 46 2 94 22 81 35 -19 17 -51 16 -86
-2z"/>
</g>
</svg>
