<?xml version="1.0" standalone="no"?>
<!DOCTYPE svg PUBLIC "-//W3C//DTD SVG 20010904//EN"
 "http://www.w3.org/TR/2001/REC-SVG-20010904/DTD/svg10.dtd">
<svg version="1.0" xmlns="http://www.w3.org/2000/svg"
 width="280.000000pt" height="280.000000pt" viewBox="0 0 280.000000 280.000000"
 preserveAspectRatio="xMidYMid meet">
<metadata>
Created by potrace 1.14, written by Peter Selinger 2001-2017
</metadata>
<g transform="translate(0.000000,280.000000) scale(0.100000,-0.100000)"
fill="#000000" stroke="none">
<path d="M1083 2472 c-7 -18 20 -66 62 -112 46 -48 82 -138 105 -261 18 -90
41 -212 47 -249 13 -73 14 -71 -67 -92 -41 -10 -91 -21 -110 -24 -19 -3 -53
-10 -75 -16 -22 -6 -49 -13 -60 -15 -81 -14 -657 -166 -722 -190 -43 -16 -47
-21 -43 -58 3 -30 16 -41 63 -54 46 -12 94 -3 282 54 128 39 188 55 206 55 17
0 40 -58 63 -160 16 -72 19 -307 4 -355 -5 -16 -11 -84 -12 -149 l-2 -120 -85
-33 c-102 -40 -121 -42 -114 -10 10 42 15 112 20 251 4 127 3 142 -16 176 -25
45 -73 70 -144 75 -53 4 -115 -21 -115 -46 0 -6 22 -32 50 -58 32 -30 50 -56
51 -72 1 -13 2 -78 3 -144 2 -66 7 -152 11 -192 l8 -72 -38 -15 c-43 -18 -68
-24 -144 -32 -30 -3 -63 -10 -73 -15 -16 -9 -17 -12 -4 -37 18 -34 82 -103
117 -126 32 -20 103 -27 144 -13 16 6 66 33 110 62 255 164 480 301 595 362
122 64 170 94 181 114 13 24 4 40 -19 32 -32 -10 -147 -54 -167 -63 -11 -5
-60 -25 -108 -44 l-88 -35 2 73 c2 78 20 200 31 211 3 3 58 17 122 30 129 27
200 55 216 85 9 16 6 25 -14 45 -42 42 -99 38 -224 -16 -52 -22 -96 -38 -99
-35 -3 2 -5 69 -6 148 l-2 143 -33 48 c-23 33 -29 48 -20 51 20 7 320 68 345
71 13 1 28 -3 33 -11 6 -7 27 -72 46 -146 66 -249 138 -431 251 -628 150 -261
311 -450 538 -631 110 -87 173 -118 250 -123 105 -6 113 12 69 155 -28 94 -34
215 -13 291 15 55 17 244 3 258 -16 16 -43 1 -50 -26 -3 -13 -10 -24 -15 -24
-5 0 -8 -3 -7 -7 2 -5 -15 -59 -37 -121 -39 -112 -82 -182 -112 -182 -26 0
-131 69 -186 123 -61 61 -174 187 -196 221 -78 116 -99 150 -136 217 -45 81
-126 275 -157 374 -32 102 -79 287 -75 292 6 5 36 10 112 17 33 3 71 8 84 11
13 2 62 7 110 10 261 16 292 21 329 56 56 51 -41 137 -196 175 -67 16 -82 13
-140 -29 -63 -46 -116 -66 -217 -83 -16 -3 -48 -9 -70 -14 -22 -5 -41 -7 -44
-5 -4 5 -8 32 -16 134 -4 41 -10 83 -14 95 -4 12 -9 84 -10 161 -2 77 -8 149
-13 159 -23 43 -97 89 -163 102 -52 10 -55 11 -57 14 -2 1 -32 3 -66 5 -49 2
-65 -1 -69 -13z"/>
<path d="M1680 2329 c-19 -6 -38 -16 -41 -21 -9 -13 130 -159 189 -200 63 -43
153 -77 180 -67 19 7 22 16 22 64 0 105 -46 159 -181 213 -41 16 -131 22 -169
11z"/>
<path d="M828 2081 c-17 -18 -63 -42 -130 -66 -191 -70 -199 -81 -73 -106 28
-6 61 -12 73 -15 42 -8 205 26 267 55 65 31 118 76 112 94 -5 18 -54 39 -122
53 -84 18 -96 17 -127 -15z"/>
</g>
</svg>
